<?xml version="1.0" standalone="no"?>
<!DOCTYPE svg PUBLIC "-//W3C//DTD SVG 20010904//EN"
 "http://www.w3.org/TR/2001/REC-SVG-20010904/DTD/svg10.dtd">
<svg version="1.0" xmlns="http://www.w3.org/2000/svg"
 width="334.000000pt" height="332.000000pt" viewBox="0 0 334.000000 332.000000"
 preserveAspectRatio="xMidYMid meet">
<metadata>
Created by potrace 1.15, written by Peter Selinger 2001-2017
</metadata>
<g transform="translate(0.000000,332.000000) scale(0.100000,-0.100000)"
fill="#000000" stroke="none">
<path d="M1711 2352 l-153 -206 42 -14 c23 -8 42 -12 44 -11 1 2 32 45 68 94
36 50 102 139 147 200 45 60 77 113 73 117 -5 5 -22 12 -39 17 -30 9 -30 9
-182 -197z"/>
<path d="M707 2212 c6 -4 40 -47 75 -96 35 -49 68 -91 73 -93 6 -1 33 30 61
70 60 83 60 83 -48 97 -40 6 -91 14 -113 20 -48 11 -64 12 -48 2z"/>
<path d="M2194 1931 c4 -5 3 -160 0 -343 l-7 -334 -76 -23 c-133 -41 -265 -83
-301 -96 -31 -12 -112 -36 -224 -67 -40 -12 -47 -8 -74 39 -6 9 -70 -7 -244
-62 -131 -41 -243 -75 -250 -75 -7 1 -25 19 -40 40 -15 22 -31 40 -36 40 -4 0
-33 -52 -64 -115 l-56 -116 77 -107 c163 -226 186 -257 194 -260 4 -2 7 -10 7
-18 0 -23 44 -26 106 -6 32 10 104 33 159 50 55 17 161 50 235 73 277 86 326
101 364 115 l39 15 81 -83 c109 -110 109 -111 137 -99 13 5 105 35 204 66 99
31 196 63 216 72 l36 15 6 111 c4 62 7 256 7 432 0 176 3 336 6 356 5 32 12
39 63 61 31 14 84 38 119 54 l62 29 -2 105 -2 105 -3 -102 c-2 -57 -6 -103 -8
-103 -2 0 -57 18 -122 41 -287 99 -588 199 -601 199 -7 0 -11 -4 -8 -9z"/>
</g>
</svg>
